<svg width="72" height="24" viewBox="0 0 72 24" fill="none" xmlns="http://www.w3.org/2000/svg">
<path fill-rule="evenodd" clip-rule="evenodd" d="M11.0421 11.9818V3.52459C11.0421 3.3178 11.2093 3.15967 11.4344 3.15967H13.2073V12.6021C13.2073 13.4536 12.5139 14.144 11.6655 14.144H3.26913C1.46579 14.144 0 12.6751 0 10.8718V3.15967H1.77598C1.99797 3.15967 2.16219 3.3178 2.16219 3.52459V10.96C2.16219 11.5803 2.64876 12.0669 3.26913 12.0669H5.66244C5.58033 11.9362 5.53168 11.7811 5.53168 11.6199V3.15967H7.30461C7.52661 3.15967 7.69386 3.3178 7.69386 3.52459V11.9818C7.69386 11.9848 7.69387 12.0669 7.75469 12.0669H10.9812C11.0421 12.0669 11.0421 11.9848 11.0421 11.9818ZM18.3102 3.1597H21.1718C23.1607 3.1597 24.444 4.40957 24.447 6.34368V8.80389C24.447 9.08671 24.447 9.61585 23.7385 9.61585H17.8844C17.632 9.61585 17.3979 9.54287 17.2033 9.4121V10.96C17.2033 11.5804 17.6898 12.0669 18.3102 12.0669H23.6077C23.8206 12.0669 23.9939 12.2403 23.9939 12.4532V14.144H18.3102C16.5068 14.144 15.038 12.6752 15.038 10.8718V6.34368C15.038 4.40957 16.3213 3.1597 18.3102 3.1597ZM22.3244 7.47799V6.32239C22.3244 5.55605 21.9899 5.21545 21.2357 5.21849H18.3102C17.6168 5.21849 17.2033 5.63207 17.2033 6.32543V7.48103C17.2033 7.49624 17.2033 7.55098 17.2884 7.56314L22.2392 7.5601C22.2818 7.5601 22.3244 7.52057 22.3244 7.47799Z" fill="white"/>
<path fill-rule="evenodd" clip-rule="evenodd" d="M58.5159 14.1439H60.8241V12.4531C60.8241 12.2433 60.6477 12.0669 60.4379 12.0669H58.5129C57.8925 12.0669 57.4059 11.5803 57.4059 10.96V5.23365H59.9026C60.1216 5.23365 60.2889 5.07552 60.2889 4.86873V3.1779H57.8743C57.7009 3.1779 57.5398 3.22656 57.4059 3.31171V0.389255C57.4059 0.179422 57.2265 0 57.0167 0H55.2438V10.8718C55.2438 12.6751 56.7126 14.1439 58.5159 14.1439ZM50.077 14.1439H48.3041C48.0912 14.1439 47.9178 13.9706 47.9209 13.7547V3.15661H49.6938C49.9158 3.15661 50.08 3.31474 50.08 3.52153V3.60972C50.4206 3.32691 50.895 3.15661 51.3816 3.15661H54.0121V4.84743C54.0121 5.06031 53.8388 5.23365 53.6259 5.23365H50.9528C50.4297 5.23365 50.1104 5.65939 50.077 6.05777V14.1439ZM45.2692 14.144H40.2727C38.4694 14.144 37.0005 12.6751 37.0005 10.8748V10.2149C37.0005 8.41159 38.4694 6.94276 40.2727 6.94276H43.8794C43.925 6.94276 43.9645 6.90626 43.9645 6.86065V6.32542C43.9645 5.81453 43.6696 5.21848 42.8333 5.21848H38.5819C38.372 5.21848 38.1957 5.0421 38.1957 4.83227V3.16273H42.8333C44.7917 3.16273 46.1054 4.42477 46.1054 6.30414V13.3077C46.1054 13.776 45.7375 14.144 45.2692 14.144ZM40.2727 9.0198C39.6493 9.0198 39.1597 9.50636 39.1597 10.1267H39.1627V10.9205C39.1627 11.5408 39.6523 12.0274 40.2757 12.0274H43.9068C43.9645 12.0274 43.9676 11.9575 43.9676 11.9453V8.9012C43.8551 8.96506 43.7243 9.00459 43.5783 9.0198H40.2727ZM69.0047 3.15964H70.8019C71.0027 3.15964 71.1669 3.32385 71.1638 3.52456V17.6928C71.1638 19.4962 69.695 20.965 67.8916 20.965H64.6864C64.2485 22.7319 62.6337 24 60.803 24C58.9753 24 57.3635 22.7319 56.9226 20.965H40.4188C39.9809 22.7319 38.3661 24 36.5353 24C34.7077 24 33.0959 22.7319 32.655 20.965H29.5957C27.8227 20.965 26.3813 19.5235 26.3813 17.7506V3.9716C26.3813 3.52456 26.7553 3.15964 27.2175 3.15964H32.3022C34.3519 3.15964 35.5744 4.34261 35.5744 6.32233V10.9812C35.5744 12.7846 34.1664 14.1439 32.3022 14.1439H29.8481C29.2976 14.1439 28.8476 13.931 28.5465 13.6817V17.7841C28.5465 18.3953 29.0422 18.891 29.6534 18.891H32.7036C33.1993 17.185 34.7594 16.005 36.5414 16.005C38.3265 16.005 39.8896 17.185 40.3853 18.891H56.9712C57.4669 17.185 59.027 16.005 60.809 16.005C62.5941 16.005 64.1572 17.185 64.6529 18.891H67.8977C68.509 18.891 69.0047 18.3953 69.0047 17.7841V13.6756C68.6428 13.9736 68.1714 14.1439 67.6849 14.1439H65.2703C63.4669 14.1439 61.9981 12.6751 61.9981 10.8717V3.15964H63.7953C63.9961 3.15964 64.1603 3.32385 64.1603 3.52456V10.963C64.1603 11.5742 64.656 12.0699 65.2672 12.0699H68.1106C68.582 11.9969 68.9682 11.5955 69.0047 11.1181V3.15964ZM62.5789 20.7521C62.6793 20.518 62.731 20.2595 62.731 20.004C62.731 19.6908 62.658 19.3897 62.512 19.113C62.1775 18.4744 61.5237 18.079 60.806 18.079C60.0913 18.079 59.4406 18.4744 59.106 19.113C58.9601 19.3897 58.8871 19.6878 58.8871 20.004C58.8871 20.2595 58.9388 20.518 59.0391 20.7521C59.3372 21.4637 60.0336 21.9229 60.806 21.9229C61.5784 21.9229 62.2748 21.4637 62.5789 20.7521ZM36.5384 21.926C37.3108 21.926 38.0042 21.4668 38.3052 20.7552C38.4056 20.521 38.4573 20.2595 38.4573 20.0071C38.4573 19.6908 38.3843 19.3928 38.2383 19.116C37.9038 18.4774 37.253 18.0821 36.5384 18.0821C35.8237 18.0821 35.1729 18.4774 34.8384 19.116C34.6925 19.3928 34.6195 19.6938 34.6195 20.0071C34.6195 20.2625 34.6712 20.521 34.7715 20.7552C35.0695 21.4668 35.7629 21.926 36.5384 21.926ZM32.3022 12.0669C32.9134 12.0669 33.4091 11.5712 33.4091 10.9599V6.32233C33.4091 5.56815 33.0594 5.21539 32.3022 5.21539H28.6286C28.583 5.21539 28.5465 5.25188 28.5465 5.2975V11.1272C28.583 11.6046 28.9631 12.0121 29.4345 12.0669H32.3022Z" fill="white"/>
</svg>
